:SAMPLES-PER-SECOND 30
:FULLY-SPECIFIED
:DEGREES
40
root  62.374 37.1243 -10.7173 10.2144 -70.9513 28.1234
RightUpLeg  -76.7102 -24.3911 20.0453
RightLeg  38.9464 4.19457 3.34572
RightFoot  0.487247 1.19396 -11.4433
RightToes  -1.16417e-010 0 -3.6325e-017
Spine  62.2998 -6.34465 9.87864
Spine1  0.155732 -1.46321 -0.608575
HEad  -50.7241 -10.6687 6.77358
LeftShoulder1  10.5682 -27.5512 -27.6944
LeftArm  -34.5775 -80.9289 -16.8065
LeftForeArm  16.3138 -11.4636 -5.69366
LeftHand  -0.244104 0.0205437 5.32207
RightShoulder  4.19236 14.9754 15.9506
RightArm  -56.2288 70.3469 -2.67075
RightForeArm  -25.7942 8.20897 5.6919
RightHand  -2.16555 6.59317 -21.0727
LeftUpLeg  -47.7924 12.2482 1.70235
LeftLeg  19.7626 -6.54707 -2.28248
LeftFoot  -5.94836 0.726371 -14.6014
LeftToes  -2.09216e-011 1.96776e-011 -5.83545e-012
41
root  62.5236 37.3564 -10.5091 8.35013 -71.3721 28.9154
RightUpLeg  -74.5791 -24.7527 18.9079
RightLeg  37.0686 4.59243 3.44378
RightFoot  1.14464 1.19782 -10.836
RightToes  -1.16417e-010 0 -3.6325e-017
Spine  61.1452 -6.20509 9.73003
Spine1  0.568374 -1.55292 -0.382245
HEad  -51.3884 -10.222 6.23035
LeftShoulder1  10.6738 -27.3005 -28.3355
LeftArm  -19.964 -77.0453 -29.3292
LeftForeArm  15.8045 -14.4247 -5.6294
LeftHand  -0.244104 0.0205437 5.32207
RightShoulder  4.4179 15.2061 16.9566
RightArm  -45.2031 68.0621 7.81164
RightForeArm  -26.7914 10.9175 6.61874
RightHand  -2.53911 7.80387 -22.3761
LeftUpLeg  -46.1171 11.185 2.06861
LeftLeg  18.8738 -5.75652 -1.86696
LeftFoot  -5.13277 0.83527 -14.7624
LeftToes  -2.09216e-011 1.96776e-011 -5.83545e-012
42
root  62.7231 37.6199 -10.2435 6.42609 -71.6263 29.4356
RightUpLeg  -72.1329 -25.4187 17.7181
RightLeg  35.0107 5.09373 3.56481
RightFoot  2.0539 1.21724 -10.2083
RightToes  -1.16417e-010 0 -3.6325e-017
Spine  59.9669 -6.19094 9.56724
Spine1  0.803768 -1.7856 -0.0711172
HEad  -51.938 -9.7192 5.68681
LeftShoulder1  10.7999 -26.8269 -29.3302
LeftArm  -9.15377 -72.2371 -36.8287
LeftForeArm  14.3222 -17.7634 -5.13385
LeftHand  -0.244104 0.0205437 5.32207
RightShoulder  4.83782 15.5768 18.8238
RightArm  -33.6382 64.7456 16.1087
RightForeArm  -29.8555 14.5179 7.31535
RightHand  -3.11045 9.42084 -24.3488
LeftUpLeg  -44.331 10.1709 2.21189
LeftLeg  18.1077 -4.93888 -1.4819
LeftFoot  -4.01337 0.972261 -14.7497
LeftToes  -2.09216e-011 1.96776e-011 -5.83545e-012
43
root  62.962 37.9267 -9.95138 4.89117 -71.6886 28.6831
RightUpLeg  -68.6055 -26.4955 16.5425
RightLeg  32.5913 5.65684 3.63568
RightFoot  3.11365 1.2587 -9.72494
RightToes  -1.16417e-010 0 -3.6325e-017
Spine  59.6773 -6.50354 9.44644
Spine1  0.366688 -2.20047 0.195517
HEad  -52.0381 -8.9925 5.32277
LeftShoulder1  10.9138 -25.917 -30.8566
LeftArm  -0.778754 -66.5815 -41.4666
LeftForeArm  12.1317 -21.2167 -4.53681
LeftHand  -0.244104 0.0205437 5.32207
RightShoulder  5.49124 16.1943 21.5364
RightArm  -22.1043 60.5051 22.1686
RightForeArm  -34.3273 18.6972 7.20685
RightHand  -3.61228 10.531 -26.2339
LeftUpLeg  -42.0268 9.50799 2.36277
LeftLeg  17.6901 -4.01316 -1.11056
LeftFoot  -2.52238 1.08694 -13.8659
LeftToes  -2.09216e-011 1.96776e-011 -5.83545e-012
44
root  63.2398 38.2224 -9.62254 3.15244 -71.6846 27.9149
RightUpLeg  -64.7275 -27.7058 15.1754
RightLeg  29.9749 6.29614 3.67302
RightFoot  4.14462 1.27334 -9.12986
RightToes  -1.16417e-010 0 -3.6325e-017
Spine  58.6265 -6.58968 9.36583
Spine1  0.988811 -2.43025 0.473054
HEad  -52.4008 -8.67367 5.14502
LeftShoulder1  11.1029 -25.52 -32.033
LeftArm  3.10341 -60.5843 -44.3912
LeftForeArm  11.1672 -24.3336 -4.56178
LeftHand  -0.244104 0.0205437 5.32207
RightShoulder  5.83818 16.1434 23.4823
RightArm  -14.5374 55.4889 26.7689
RightForeArm  -36.1947 23.1846 6.74307
RightHand  -3.85111 10.8918 -27.2866
LeftUpLeg  -39.7425 8.93602 2.22957
LeftLeg  17.6784 -3.19086 -0.81664
LeftFoot  -1.54282 1.07141 -12.3398
LeftToes  -2.09216e-011 1.96776e-011 -5.83545e-012
